<?xml version="1.0" encoding="iso-8859-1"?>
<!-- Generator: Adobe Illustrator 19.0.0, SVG Export Plug-In . SVG Version: 6.00 Build 0)  -->
<svg version="1.1" id="Layer_1" xmlns="http://www.w3.org/2000/svg" xmlns:xlink="http://www.w3.org/1999/xlink" x="0px" y="0px"
	 viewBox="0 0 511.999 511.999" style="enable-background:new 0 0 511.999 511.999;" xml:space="preserve">
<rect x="279.994" y="176.003" style="fill:#FFFFFF;" width="95.996" height="32"/>
<rect x="272.001" y="95.994" style="fill:#E30613;" width="112.004" height="24"/>
<rect x="152.003" y="71.998" style="fill:#F9B233;" width="79.998" height="24"/>
<rect x="279.994" y="119.996" style="fill:#86CBED;" width="95.996" height="56"/>
<rect x="72" y="240.004" style="fill:#FFFFFF;" width="336.001" height="79.998"/>
<rect x="72" y="207.998" style="fill:#E30613;" width="336.001" height="32"/>
<rect x="152.003" y="95.994" style="fill:#575756;" width="79.998" height="112.004"/>
<polygon style="fill:#F9B233;" points="424,415.998 88,415.998 56,383.998 439.999,383.998 "/>
<rect y="417.378" style="fill:#86CBED;" width="511.996" height="86.623"/>
<polygon style="fill:#E30613;" points="432,383.998 48,383.998 24,319.998 272,319.998 328,271.998 495.999,271.998 "/>
<g>
	<rect x="376.168" y="407.994" style="fill:#1D1D1B;" width="15.674" height="16.001"/>
	<rect x="104.167" y="271.999" style="fill:#1D1D1B;" width="15.674" height="16"/>
	<rect x="144.166" y="271.999" style="fill:#1D1D1B;" width="15.674" height="16"/>
	<rect x="184.166" y="271.999" style="fill:#1D1D1B;" width="15.674" height="16"/>
	<rect x="224.165" y="271.999" style="fill:#1D1D1B;" width="15.674" height="16"/>
	<rect x="264.164" y="271.999" style="fill:#1D1D1B;" width="15.674" height="16"/>
</g>
<g>
	
		<rect x="304.181" y="133.586" transform="matrix(-0.8321 -0.5547 0.5547 -0.8321 489.5419 444.2303)" style="fill:#FFFFFF;" width="15.674" height="28.845"/>
	
		<rect x="336.175" y="133.58" transform="matrix(-0.8321 -0.5547 0.5547 -0.8321 548.1592 461.9675)" style="fill:#FFFFFF;" width="15.674" height="28.846"/>
</g>
<g>
	<path style="fill:#1D1D1B;" d="M436.68,408.161l72.001-144h-92.843V200.16h-32v-88H272.163v88h-32.326V64.162h-95.674v135.999
		H64.163v112h-48v7.837c0,37.157,19.621,69.812,49.043,88.163H0v15.674h511.999v-15.674H436.68z M368.163,127.835v40.326h-80.326
		v-40.326C287.836,127.835,368.163,127.835,368.163,127.835z M287.836,183.835h80.326v16.327h-80.326V183.835z M224.164,79.836
		v8.326h-64.327v-8.326H224.164z M159.837,103.835h64.327v96.326h-64.327V103.835z M400.163,215.835v16.327H79.836v-16.327H400.163z
		 M79.836,247.835h320.326v16.327H325.1l-56,48H79.836V247.835z M32.182,327.835h242.717l56-48H483.32l-48.163,96.326H52.091
		C41.012,362.789,33.799,346.103,32.182,327.835z M68.97,391.835h358.349l-8.163,16.327H120
		C100.995,408.161,83.384,402.103,68.97,391.835z"/>
	<polygon style="fill:#1D1D1B;" points="376.163,327.998 391.836,327.998 391.836,319.835 416,319.835 416,304.162 352,304.162 
		352,319.835 376.163,319.835 	"/>
	<polygon style="fill:#1D1D1B;" points="391.836,345.355 391.836,335.998 376.163,335.998 376.163,345.355 364.347,337.477 
		355.652,350.519 383.999,369.416 412.347,350.519 403.652,337.477 	"/>
	<polygon style="fill:#1D1D1B;" points="383.999,88.162 335.836,88.162 335.836,71.999 320.163,71.999 320.163,88.162 
		303.837,88.162 303.837,31.999 288.163,31.999 288.163,88.162 272,88.162 272,103.835 383.999,103.835 	"/>
	<rect x="320.161" y="47.999" style="fill:#1D1D1B;" width="15.674" height="16.001"/>
	<rect x="288.165" y="7.998" style="fill:#1D1D1B;" width="15.674" height="16.001"/>
</g>
<g>
	<rect x="56" y="440.157" style="fill:#FFFFFF;" width="32" height="15.674"/>
	<rect x="143.999" y="464.158" style="fill:#FFFFFF;" width="88.002" height="15.674"/>
	<rect x="239.995" y="440.157" style="fill:#FFFFFF;" width="32" height="15.674"/>
	<rect x="95.996" y="456.165" style="fill:#FFFFFF;" width="16.001" height="15.674"/>
	<rect x="391.998" y="440.157" style="fill:#FFFFFF;" width="88.002" height="15.674"/>
	<rect x="360.003" y="456.165" style="fill:#FFFFFF;" width="24.001" height="15.674"/>
	<rect x="72" y="336.157" style="fill:#FFFFFF;" width="79.998" height="15.674"/>
</g>
<g>
</g>
<g>
</g>
<g>
</g>
<g>
</g>
<g>
</g>
<g>
</g>
<g>
</g>
<g>
</g>
<g>
</g>
<g>
</g>
<g>
</g>
<g>
</g>
<g>
</g>
<g>
</g>
<g>
</g>
</svg>
