<svg xmlns="http://www.w3.org/2000/svg" viewBox="0 0 511.999 511.999"><path fill="#fff" d="M279.994 176.003h95.996v32h-95.996z"/><path fill="#e30613" d="M272.001 95.994h112.004v24H272.001z"/><path fill="#f9b233" d="M152.003 71.998h79.998v24h-79.998z"/><path fill="#86cbed" d="M279.994 119.996h95.996v56h-95.996z"/><path fill="#fff" d="M72 240.004h336.001v79.998H72z"/><path fill="#e30613" d="M72 207.998h336.001v32H72z"/><path fill="#575756" d="M152.003 95.994h79.998v112.004h-79.998z"/><path fill="#f9b233" d="M424 415.998H88l-32-32h383.999z"/><path fill="#86cbed" d="M0 417.378h511.996v86.623H0z"/><path fill="#e30613" d="M432 383.998H48l-24-64h248l56-48h167.999z"/><g fill="#1d1d1b"><path d="M376.168 407.994h15.674v16.001h-15.674zM104.167 271.999h15.674v16h-15.674zM144.166 271.999h15.674v16h-15.674zM184.166 271.999h15.674v16h-15.674zM224.165 271.999h15.674v16h-15.674zM264.164 271.999h15.674v16h-15.674z"/></g><g fill="#fff"><path d="M310.533 164.344l-13.042-8.694 16-24.002 13.042 8.694zM342.525 164.34l-13.043-8.695 16.001-24.003 13.043 8.695z"/></g><g fill="#1d1d1b"><path d="M436.68 408.161l72.001-144h-92.843V200.16h-32v-88H272.163v88h-32.326V64.162h-95.674v135.999h-80v112h-48v7.837c0 37.157 19.621 69.812 49.043 88.163H0v15.674h511.999v-15.674H436.68zm-68.517-280.326v40.326h-80.326v-40.326h80.326zm-80.327 56h80.326v16.327h-80.326v-16.327zM224.164 79.836v8.326h-64.327v-8.326h64.327zm-64.327 23.999h64.327v96.326h-64.327v-96.326zm240.326 112v16.327H79.836v-16.327h320.327zm-320.327 32h320.326v16.327H325.1l-56 48H79.836v-64.327zm-47.654 80h242.717l56-48H483.32l-48.163 96.326H52.091c-11.079-13.372-18.292-30.058-19.909-48.326zm36.788 64h358.349l-8.163 16.327H120c-19.005-.001-36.616-6.059-51.03-16.327z"/><path d="M376.163 327.998h15.673v-8.163H416v-15.673h-64v15.673h24.163zM391.836 345.355v-9.357h-15.673v9.357l-11.816-7.878-8.695 13.042 28.347 18.897 28.348-18.897-8.695-13.042zM383.999 88.162h-48.163V71.999h-15.673v16.163h-16.326V31.999h-15.674v56.163H272v15.673h111.999z"/><path d="M320.161 47.999h15.674V64h-15.674zM288.165 7.998h15.674v16.001h-15.674z"/></g><g fill="#fff"><path d="M56 440.157h32v15.674H56zM143.999 464.158h88.002v15.674h-88.002zM239.995 440.157h32v15.674h-32zM95.996 456.165h16.001v15.674H95.996zM391.998 440.157H480v15.674h-88.002zM360.003 456.165h24.001v15.674h-24.001zM72 336.157h79.998v15.674H72z"/></g></svg>
