<svg version="1.1" id="prefix__Layer_1" xmlns="http://www.w3.org/2000/svg" x="0" y="0" viewBox="0 0 612 724" xml:space="preserve"><style>.prefix__st0{fill:#ec2025}.prefix__st1{fill:none}.prefix__st2{fill:#888c91}</style><path class="prefix__st1" d="M550.243 681.553c-3.107 2.203-4.66 4.998-4.66 8.387 0 3.333 1.241 6.214 3.728 8.642 2.484 2.429 5.647 3.643 9.489 3.643 4.291 0 8.387-1.412 12.284-4.236 2.881-2.145 4.773-4.772 5.677-7.88.62-2.033.932-5.901.932-11.607v-4.744c-3.05 1.016-7.88 2.232-14.488 3.643-6.609 1.412-10.93 2.796-12.962 4.152zM149.248 643.173c-5.197 0-9.489 1.893-12.877 5.676-3.39 3.785-5.056 8.926-5 15.42h35.584c-.17-6.89-1.949-12.13-5.337-15.717-3.39-3.585-7.513-5.379-12.37-5.379zM321.396 554.353v-16.346c-.01 5.23-.009 10.461-.021 15.692 0 .218.01.436.021.654zM395.961 681.553c-3.107 2.203-4.66 4.998-4.66 8.387 0 3.333 1.242 6.214 3.728 8.642 2.485 2.429 5.648 3.643 9.49 3.643 4.291 0 8.387-1.412 12.284-4.236 2.88-2.145 4.773-4.772 5.676-7.88.621-2.033.933-5.901.933-11.607v-4.744c-3.05 1.016-7.88 2.232-14.488 3.643-6.609 1.412-10.93 2.796-12.963 4.152zM306.663 643.173c-5.648 0-10.378 2.246-14.19 6.735-3.813 4.491-5.72 11.198-5.72 20.122 0 9.604 1.327 16.55 3.982 20.842 3.84 6.214 9.206 9.32 16.098 9.32 5.478 0 10.138-2.33 13.98-6.99 3.84-4.66 5.76-11.621 5.76-20.884 0-10.336-1.864-17.778-5.591-22.325-3.728-4.546-8.502-6.82-14.319-6.82z"/><path class="prefix__st2" d="M83.375 635.04c-2.231-2.936-5.52-5.351-9.87-7.245-4.35-1.891-9.15-2.837-14.403-2.837-11.918 0-21.803 5.082-29.653 15.25V626.99H7.336v89.976h23.807v-40.753c0-10.052.607-16.944 1.822-20.67 1.214-3.73 3.46-6.722 6.736-8.983 3.275-2.258 6.974-3.388 11.098-3.388 3.22 0 5.974.79 8.26 2.373 2.289 1.581 3.941 3.799 4.957 6.65 1.017 2.853 1.525 9.136 1.525 18.85v45.92H89.35V661.05c0-6.946-.438-12.285-1.314-16.012-.876-3.728-2.429-7.06-4.66-9.997zM147.808 624.958c-11.918 0-21.774 4.222-29.569 12.665-7.794 8.445-11.691 20.122-11.691 35.034 0 12.483 2.965 22.82 8.896 31.007C122.954 713.89 134.534 719 150.18 719c9.883 0 18.116-2.273 24.697-6.82 6.58-4.545 11.395-11.17 14.445-19.867l-23.723-3.983c-1.3 4.52-3.219 7.794-5.76 9.828-2.542 2.034-5.677 3.05-9.404 3.05-5.48 0-10.055-1.962-13.726-5.889-3.672-3.924-5.591-9.416-5.76-16.478h59.644c.339-18.243-3.361-31.784-11.099-40.625-7.739-8.838-18.3-13.258-31.686-13.258zm-16.436 39.311c-.057-6.494 1.61-11.635 4.999-15.42 3.388-3.783 7.68-5.676 12.877-5.676 4.857 0 8.98 1.794 12.37 5.38 3.388 3.587 5.168 8.826 5.337 15.716h-35.583zM241.596 699.26c-1.582 0-2.923-.396-4.024-1.187-1.102-.79-1.809-1.792-2.118-3.008-.312-1.213-.467-5.492-.467-12.834v-36.262h16.268v-18.978h-16.268V595.22l-23.892 13.893v17.878h-10.93v18.978h10.93v39.226c0 8.417.255 14.008.763 16.776.62 3.897 1.737 6.99 3.346 9.277 1.61 2.287 4.138 4.151 7.584 5.591 3.444 1.441 7.314 2.161 11.606 2.161 7.004 0 13.273-1.186 18.809-3.559l-2.033-18.47c-4.181 1.526-7.371 2.289-9.574 2.289zM326.489 637.496c-7.343-8.358-16.042-12.538-26.095-12.538-10.958 0-20.023 3.968-27.196 11.902-7.174 7.937-10.76 19.529-10.76 34.78 0 14.91 3.686 26.532 11.056 34.863C280.866 714.836 289.72 719 300.055 719c5.083 0 10.124-1.258 15.123-3.77 4.999-2.513 9.333-6.34 13.005-11.48v13.217h22.113V592.762h-23.807v44.734zm-5.677 55.707c-3.841 4.659-8.501 6.989-13.98 6.989-6.891 0-12.256-3.106-16.097-9.32-2.655-4.291-3.982-11.238-3.982-20.842 0-8.924 1.907-15.63 5.72-20.122 3.812-4.49 8.542-6.735 14.19-6.735 5.817 0 10.59 2.274 14.319 6.82 3.727 4.547 5.591 11.989 5.591 22.325 0 9.263-1.92 16.224-5.76 20.885zM446.54 687.398l.255-27.79c0-10.335-1.06-17.438-3.177-21.307-2.118-3.868-5.776-7.06-10.972-9.574-5.197-2.512-13.104-3.77-23.722-3.77-11.692 0-20.503 2.09-26.433 6.27-5.931 4.18-10.112 10.62-12.54 19.317l21.605 3.898c1.468-4.18 3.389-7.103 5.76-8.77 2.373-1.666 5.677-2.499 9.913-2.499 6.27 0 10.533.974 12.794 2.923 2.258 1.948 3.389 5.21 3.389 9.784v2.373c-4.294 1.81-12.003 3.757-23.13 5.847-8.247 1.582-14.559 3.43-18.935 5.549-4.378 2.118-7.782 5.167-10.21 9.15-2.429 3.982-3.643 8.514-3.643 13.599 0 7.68 2.669 14.034 8.007 19.062 5.337 5.028 12.636 7.54 21.9 7.54 5.253 0 10.195-.988 14.827-2.966 4.63-1.975 8.98-4.94 13.047-8.895.17.453.452 1.384.847 2.796.903 3.107 1.666 5.451 2.288 7.032h23.553c-2.09-4.292-3.515-8.317-4.278-12.074-.763-3.755-1.144-9.586-1.144-17.495zm-23.128-8.896c0 5.706-.312 9.574-.933 11.608-.903 3.107-2.795 5.734-5.676 7.879-3.897 2.824-7.993 4.236-12.285 4.236-3.841 0-7.004-1.214-9.489-3.643-2.486-2.428-3.727-5.309-3.727-8.642 0-3.39 1.552-6.184 4.66-8.387 2.032-1.356 6.353-2.74 12.962-4.152 6.608-1.411 11.437-2.627 14.488-3.643v4.744zM501.866 699.26c-1.583 0-2.924-.396-4.025-1.187-1.101-.79-1.808-1.792-2.118-3.008-.311-1.213-.466-5.492-.466-12.834v-36.262h16.267v-18.978h-16.267V595.22l-23.892 13.893v17.878h-10.93v18.978h10.93v39.226c0 8.417.254 14.008.763 16.776.62 3.897 1.737 6.99 3.346 9.277 1.61 2.287 4.137 4.151 7.583 5.591 3.445 1.441 7.314 2.161 11.607 2.161 7.003 0 13.272-1.186 18.808-3.559l-2.033-18.47c-4.18 1.526-7.37 2.289-9.573 2.289zM600.822 687.398l.254-27.79c0-10.335-1.059-17.438-3.176-21.307-2.119-3.868-5.777-7.06-10.972-9.574-5.198-2.512-13.105-3.77-23.723-3.77-11.692 0-20.503 2.09-26.433 6.27s-10.111 10.62-12.54 19.317l21.605 3.898c1.468-4.18 3.389-7.103 5.76-8.77 2.373-1.666 5.677-2.499 9.913-2.499 6.27 0 10.534.974 12.794 2.923 2.258 1.948 3.389 5.21 3.389 9.784v2.373c-4.293 1.81-12.003 3.757-23.13 5.847-8.247 1.582-14.559 3.43-18.935 5.549-4.378 2.118-7.782 5.167-10.21 9.15-2.428 3.982-3.642 8.514-3.642 13.599 0 7.68 2.668 14.034 8.006 19.062 5.338 5.028 12.637 7.54 21.9 7.54 5.253 0 10.196-.988 14.827-2.966 4.63-1.975 8.98-4.94 13.047-8.895.17.453.452 1.384.848 2.796.903 3.107 1.665 5.451 2.288 7.032h23.553c-2.09-4.292-3.516-8.317-4.279-12.074-.762-3.755-1.144-9.586-1.144-17.495zm-23.13-8.896c0 5.706-.31 9.574-.931 11.608-.904 3.107-2.796 5.734-5.677 7.879-3.897 2.824-7.993 4.236-12.284 4.236-3.842 0-7.005-1.214-9.49-3.643-2.486-2.428-3.727-5.309-3.727-8.642 0-3.39 1.553-6.184 4.66-8.387 2.033-1.356 6.353-2.74 12.962-4.152 6.608-1.411 11.437-2.627 14.488-3.643v4.744z"/><path class="prefix__st0" d="M57.47 384.973c40.07 12.959 81.232 16.849 123.243 15.974 91.858-1.913 171.02-35.106 237.766-97.12 49.182-45.693 79.275-102.896 92.371-168.777 1.578-7.935 4.785-11.164 12.876-10.925 13.027.383 39.116-.135 39.116-.135l14.825.01-11.051-9.03s-43.088-37.636-64.492-56.613C481.828 40.36 460.408 23.63 441.29 4.309c-42.403 36.766-87.003 73.507-129.32 110.372-2.204 1.92-10.97 9.486-10.97 9.486s11.883-.208 14.998-.17c15.574.189 31.152.129 46.727.285 13.391.134 14.365 1.136 11.023 13.593-3.47 12.93-6.996 25.894-11.468 38.499C320.419 294.36 201.098 386.664 60.782 369.85c-5.888-.705-15.017-3.75-16.553 4.982-1.35 7.666 7.73 8.359 13.241 10.141z"/><path class="prefix__st0" d="M528.273 561c.168-1.437.484-2.875.484-4.312l-.001-1.852c-.017-134.77-.777-268.935-.88-403.71-.002-2.184-.425-6.591-2.875-7.126-2 6.167-2.625 8.875-4.182 14.395-11.036 42.247-30.239 80.548-56.112 115.522-4.836 6.538-6.692 13.064-6.67 21.025.194 69.145.073 138.29.136 207.436.016 17.486.267 34.972.449 52.458.021 2.054.046 4.11.064 6.164h69.587zM426.068 561v-6.164c.015-74.337.045-148.673-.025-223.01-.004-3.387.333-7.45-1.917-8.826-3.006-1.837-6.258 1.82-8.658 3.89-16.495 14.225-34.277 26.691-52.856 37.97-4.55 2.764-7.247 5.845-8.238 10.326V561h71.694zM321.396 561v-6.647c-.01-.218-.022-.436-.021-.654.012-5.23.011-10.461.021-15.692V394.203c-.561-5.318-3.592-6.845-9.55-4.472-16.164 6.436-32.635 12.05-49.612 15.857-6.024 1.351-9.035 4.057-10.233 8.587V561h69.395zM112.929 561l.021-6.164c.159-44.2.257-88.4.586-132.598.051-6.85-3.13-9.837-9.35-10.83-17.156-2.742-34.013-6.82-50.533-12.145-7.72-2.489-10.773-.12-10.741 7.799.197 49.257.292 98.516.415 147.774l.015 6.164h69.587zM217.308 561l.004-6.164c.032-43.186.029-86.373.152-129.559.023-7.99-3.532-10.763-11.403-10.274-16.24 1.01-32.515 1.675-48.784 1.905-7.587.108-10.127 3.314-10.079 10.538.281 42.462.367 84.926.505 127.39l.019 6.164h69.586z"/></svg>
