<svg xmlns="http://www.w3.org/2000/svg" width="48" height="48"><g transform="translate(0 -1004.362)"><rect width="48" height="48" y="1004.362" ry="8" fill="#494949"/><path d="M8 1004.362c-4.432 0-8 3.568-8 8v32c0 4.432 3.568 8 8 8h12c15.512 0 28-16.948 28-38v-2c0-4.432-3.568-8-8-8H8z" fill="#313131"/><g font-weight="700" font-family="Orbitron" letter-spacing="0" word-spacing="0"><path d="M12.487 1016.862c.554 0 1.026.212 1.415.636.399.414.6.916.598 1.506v6.858h-2v-6.891c0-.072-.034-.109-.102-.109H7.602c-.068 0-.102.036-.102.109v6.891h-2v-9zM17.513 1016.862h4.974c.554 0 1.026.212 1.415.636.399.414.598.916.598 1.506v4.717c0 .59-.2 1.096-.598 1.52a1.87 1.87 0 01-1.415.621h-4.974c-.554 0-1.03-.207-1.43-.62a2.172 2.172 0 01-.583-1.521v-4.718c0-.59.195-1.09.583-1.505.4-.424.876-.636 1.43-.636zm4.885 2h-4.796c-.068 0-.102.036-.102.109v4.783c0 .072.034.108.102.108h4.796c.068 0 .102-.036.102-.108v-4.783c0-.072-.034-.109-.102-.109z" style="line-height:125%;-inkscape-font-specification:'Orbitron Bold';text-align:start"/><g><path d="M12.5 1037.418l4.768-8.556H19.5l-6 11h-2l-6-11h2.232zM29.5 1036.862v-8h2v11h-2l-7-8v8h-2v-11h2zM43.5 1030.862h-8.898c-.068 0-.102.036-.102.107v6.786c0 .071.034.107.102.107H43.5v2h-8.972a1.947 1.947 0 01-1.445-.611 2.14 2.14 0 01-.583-1.513v-6.752c0-.591.195-1.09.583-1.498.4-.417.88-.626 1.445-.626H43.5z" style="line-height:125%;-inkscape-font-specification:'Orbitron Bold';text-align:start"/></g></g><g font-weight="700" font-family="Orbitron" letter-spacing="0" word-spacing="0"><g fill="green"><path style="line-height:125%;-inkscape-font-specification:'Orbitron Bold';text-align:start" d="M11.987 1016.362c.554 0 1.026.212 1.415.636.399.414.6.916.598 1.506v6.858h-2v-6.891c0-.072-.034-.109-.102-.109H7.102c-.068 0-.102.036-.102.109v6.891H5v-9zM17.013 1016.362h4.974c.554 0 1.026.212 1.415.636.399.414.598.916.598 1.506v4.717c0 .59-.2 1.096-.598 1.52a1.87 1.87 0 01-1.415.621h-4.974c-.554 0-1.03-.207-1.43-.62a2.172 2.172 0 01-.583-1.521v-4.718c0-.59.195-1.09.583-1.505.4-.424.876-.636 1.43-.636zm4.885 2h-4.796c-.068 0-.102.036-.102.109v4.783c0 .072.034.108.102.108h4.796c.068 0 .102-.036.102-.108v-4.783c0-.072-.034-.109-.102-.109z"/></g><g fill="#ff0"><path style="line-height:125%;-inkscape-font-specification:'Orbitron Bold';text-align:start" d="M12 1036.918l4.768-8.556H19l-6 11h-2l-6-11h2.232zM29 1036.362v-8h2v11h-2l-7-8v8h-2v-11h2zM43 1030.362h-8.898c-.068 0-.102.036-.102.107v6.786c0 .071.034.107.102.107H43v2h-8.972a1.947 1.947 0 01-1.445-.611 2.14 2.14 0 01-.583-1.513v-6.752c0-.591.195-1.09.583-1.498.4-.417.88-.626 1.445-.626H43z"/></g></g></g></svg>
